PathFileType	4	(X/Y/Z)	s04c0401.trc
DataRate	CameraRate	NumFrames	NumMarkers	Units	OrigDataRate	OrigDataStartFrame	OrigNumFrames
200	200	4	50	mm	200	250	2000
Frame#	Time	racr			lacr			c7			jug			rlel			rdr			llel			ldr			s2			lic			ric			lasi			rasi			rpsi			lpsi			rgt			lgt			rth1			rth2			rth3			rth4			rlfc			rmfc			rsh1			rsh2			rsh3			rsh4			rlmal			rmmal			rcal			rtoe			rmt5			lth1			lth2			lth4			lth3			llfc			lmfc			lsh1			lsh2			lsh3			lsh4			llmal			lmmal			lcal			ltoe			lmt5			SBIKE			LBIKE			RBIKE			
		X1	Y1	Z1	X2	Y2	Z2	X3	Y3	Z3	X4	Y4	Z4	X5	Y5	Z5	X6	Y6	Z6	X7	Y7	Z7	X8	Y8	Z8	X9	Y9	Z9	X10	Y10	Z10	X11	Y11	Z11	X12	Y12	Z12	X13	Y13	Z13	X14	Y14	Z14	X15	Y15	Z15	X16	Y16	Z16	X17	Y17	Z17	X18	Y18	Z18	X19	Y19	Z19	X20	Y20	Z20	X21	Y21	Z21	X22	Y22	Z22	X23	Y23	Z23	X24	Y24	Z24	X25	Y25	Z25	X26	Y26	Z26	X27	Y27	Z27	X28	Y28	Z28	X29	Y29	Z29	X30	Y30	Z30	X31	Y31	Z31	X32	Y32	Z32	X33	Y33	Z33	X34	Y34	Z34	X35	Y35	Z35	X36	Y36	Z36	X37	Y37	Z37	X38	Y38	Z38	X39	Y39	Z39	X40	Y40	Z40	X41	Y41	Z41	X42	Y42	Z42	X43	Y43	Z43	X44	Y44	Z44	X45	Y45	Z45	X46	Y46	Z46	X47	Y47	Z47	X48	Y48	Z48	X49	Y49	Z49	X50	Y50	Z50	
250	1.2500	567.977471	1430.674196	-179.779068	619.481797	1393.735844	-401.977518	530.424555	1466.968966	-312.383171	540.452263	1309.185167	-291.263835	472.839162	1139.669816	-30.770215	682.610061	948.071450	-106.132551	507.237987	1154.486441	-575.956632	676.559552	948.680620	-480.117554	-37.930710	1203.122410	-291.758891	128.686291	1168.742597	-443.909056	126.372597	1186.696008	-129.246558	156.240713	1121.795704	-398.341544	153.901774	1128.608135	-170.749600	-0.214692	1241.781645	-249.381148	2.002373	1240.348057	-326.972671	56.478287	1144.990037	-100.664838	69.638836	1101.554701	-473.392610	149.034667	1015.694207	-76.014148	221.078957	964.277975	-79.274079	259.753243	887.745766	-76.802261	245.342536	985.287831	-99.205157	327.021079	761.124800	-99.599031	309.563972	750.768868	-212.887920	230.151279	684.186788	-84.013752	177.535495	611.401143	-104.834679	97.170754	581.977232	-115.665339	200.840963	591.503600	-128.177881	-9.801874	473.739946	-133.748881	17.389817	475.411046	-218.099064	-86.684012	472.398829	-179.422754	181.197876	334.388835	-160.094514	108.099536	341.606321	-109.303786	118.058981	1030.244648	-478.781551	194.575233	989.125310	-479.157774	218.828875	1014.873611	-468.758028	241.517979	913.394396	-479.676040	344.234681	786.329295	-458.112310	378.226586	765.802873	-348.586343	335.816719	660.894560	-478.652734	341.189892	576.132782	-459.227084	303.511838	496.079305	-456.659044	370.760669	574.036307	-433.138856	271.276395	352.052848	-449.432668	269.741410	353.300375	-360.320883	194.038073	317.430634	-407.104104	494.855344	342.438735	-419.302293	427.871403	297.381344	-479.357399	-185.651298	934.311231	-285.735258	-17.511239	79.268855	-485.394187	-17.596339	79.361496	-84.785023	
251	1.2550	569.996316	1430.877704	-180.143814	622.413130	1393.182240	-402.692387	532.646900	1466.929900	-313.014755	542.911144	1309.319448	-291.419154	473.054235	1140.181376	-31.312850	682.264374	947.940602	-106.291791	508.355243	1154.700719	-576.868328	676.472635	948.639236	-479.792945	-35.368494	1203.392805	-292.563409	131.348311	1167.847241	-444.529063	128.606091	1187.411350	-129.941159	158.705395	1120.727073	-398.416834	155.891665	1128.988973	-171.217877	1.990291	1242.446502	-249.934629	4.596467	1240.356698	-328.008629	58.680606	1146.109258	-100.969917	71.793187	1100.816348	-473.571830	151.000445	1016.987786	-76.416774	223.142573	965.768273	-79.415676	262.134836	889.487536	-76.128948	247.555895	986.878348	-98.944169	329.880955	762.812875	-98.554025	312.750261	752.309687	-211.818331	232.590399	686.598358	-83.116326	179.471208	614.286338	-104.120757	98.893812	585.300475	-115.322111	202.678314	594.148616	-127.482717	-8.784589	477.959380	-133.789145	18.551625	479.752754	-218.009638	-85.667598	477.024423	-179.474283	181.886467	338.297589	-160.103496	108.759737	345.778539	-109.216330	119.443779	1029.262100	-478.864180	195.551757	987.393400	-479.270332	220.076161	1012.934244	-468.925430	241.739715	911.190274	-479.769067	343.445093	782.768243	-458.232506	377.442100	762.234962	-348.786049	335.046260	657.219004	-478.731913	340.503483	572.474044	-459.317548	302.908527	492.309218	-456.771603	370.171002	570.304807	-433.293924	270.903395	348.209457	-449.446945	269.133226	349.525745	-360.469784	193.609163	313.655848	-407.131978	494.419306	338.138343	-419.209110	427.409070	293.225700	-479.307407	-185.629389	934.420661	-285.593925	-17.503639	79.284653	-485.402381	-17.598153	79.375601	-84.788592	
252	1.2600	571.875624	1431.157556	-180.440802	625.285627	1392.634561	-403.365669	534.788318	1466.977938	-313.650427	545.330336	1309.511879	-291.552782	473.356674	1140.796332	-31.891837	681.972732	947.845798	-106.530942	509.433967	1155.036212	-577.642782	676.321991	948.609375	-479.514952	-32.659018	1203.770760	-293.503987	134.092917	1166.923177	-445.168924	130.878675	1188.097669	-130.670218	161.149989	1119.722242	-398.449567	157.924983	1129.497949	-171.578994	3.572732	1242.094110	-250.317046	6.129710	1240.425225	-328.252218	60.919894	1147.136592	-101.281745	73.930243	1100.056756	-473.732633	153.146129	1018.407803	-76.528557	225.402566	967.317241	-79.245086	264.661425	891.263165	-75.424849	249.737076	988.517169	-98.255947	332.818674	764.768979	-97.530117	316.009343	753.962565	-210.767235	235.112200	689.066235	-82.248495	181.560040	617.198046	-103.428044	100.808726	588.564519	-115.243935	204.650490	596.846822	-126.895273	-7.524661	482.271754	-133.700227	19.882482	484.055965	-217.912166	-84.446814	481.647337	-179.504887	182.648138	342.308110	-159.976005	109.503577	349.674366	-109.146669	120.949516	1028.219818	-478.748650	196.580807	985.645404	-479.440365	221.351979	1010.864439	-469.134416	242.061723	908.959062	-479.902619	342.624677	779.165937	-458.425551	376.624272	758.551272	-348.898514	334.311535	653.436373	-478.867432	339.800987	568.695951	-459.460594	302.246350	488.521465	-456.886167	369.431584	566.519304	-433.443433	270.374122	344.220305	-449.532807	268.631427	345.509417	-360.485816	193.013313	309.800925	-407.178010	493.907558	333.892960	-419.288443	426.805859	288.939367	-479.219495	-185.710356	934.358362	-285.825878	-17.495166	79.253014	-485.408685	-17.571148	79.364666	-84.788222	
253	1.2650	573.666443	1431.501944	-180.630865	628.121598	1392.137066	-404.038042	537.073214	1467.536490	-316.233901	547.690554	1309.827472	-291.714414	473.730457	1141.334422	-32.504637	681.772108	947.755261	-106.811661	510.524054	1155.383906	-578.335357	676.123540	948.610553	-479.261930	-30.070134	1203.981298	-294.329967	136.802605	1166.044557	-445.833722	133.096572	1188.873449	-131.336396	163.661204	1118.630908	-398.488020	160.009027	1129.955413	-172.058938	7.021473	1242.703186	-252.279276	9.996806	1240.176171	-330.230897	62.980035	1148.265409	-101.626973	76.204213	1099.202069	-473.893661	155.370814	1020.003033	-76.623503	227.808935	969.097837	-78.937239	267.287762	893.217176	-74.772833	252.082016	990.113312	-98.227533	335.752594	766.711750	-96.627161	319.429431	755.638496	-209.717470	237.768318	691.673725	-81.465614	183.720097	620.185277	-102.797633	103.281075	592.115213	-115.126889	206.746483	599.675190	-126.227433	-6.178751	486.611269	-133.738589	21.319369	488.312633	-217.796661	-83.008635	486.399844	-179.552523	183.544652	346.036225	-159.999153	110.500376	354.158710	-108.702932	122.431338	1027.179838	-478.881470	197.644090	983.785972	-479.655093	222.684221	1008.783459	-469.311840	242.335300	906.646294	-480.037027	341.959916	775.473320	-458.740420	375.787054	754.298720	-349.249950	333.500196	649.585847	-479.013895	338.984153	564.831475	-459.563897	301.472372	484.716747	-456.973106	368.452255	562.633094	-432.641240	269.772138	340.353120	-449.576080	268.196565	341.447858	-360.419854	192.355046	306.059871	-407.317192	493.353122	329.926381	-419.681637	426.131005	284.621737	-479.183071	-185.679688	934.355431	-285.862601	-17.493978	79.253320	-485.414312	-17.578106	79.376052	-84.794243	
